<?xml version="1.0" encoding="UTF-8"?>
<svg width="30px" height="17px" viewBox="0 0 30 17" version="1.1" xmlns="http://www.w3.org/2000/svg" xmlns:xlink="http://www.w3.org/1999/xlink">
    <!-- Generator: Sketch 43.2 (39069) - http://www.bohemiancoding.com/sketch -->
    <title>Combined Shape</title>
    <desc>Created with Sketch.</desc>
    <defs></defs>
    <g id="Page-1" stroke="none" stroke-width="1" fill="none" fill-rule="evenodd">
        <g id="WhiteSmoke-Desktop-HD" transform="translate(-1098.000000, -39.000000)" fill="#2C2C2C">
            <g id="navigation-closed">
                <g id="Group-2" transform="translate(1098.000000, 39.000000)">
                    <path d="M0,1.5 C0,0.671572875 0.66865487,0 1.50826408,0 L28.4917359,0 C29.3247272,0 30,0.665797234 30,1.5 C30,2.32842712 29.3313451,3 28.4917359,3 L1.50826408,3 C0.675272828,3 0,2.33420277 0,1.5 Z M0,8.5 C0,7.67157288 0.66865487,7 1.50826408,7 L28.4917359,7 C29.3247272,7 30,7.66579723 30,8.5 C30,9.32842712 29.3313451,10 28.4917359,10 L1.50826408,10 C0.675272828,10 0,9.33420277 0,8.5 Z M0,15.5 C0,14.6715729 0.66865487,14 1.50826408,14 L28.4917359,14 C29.3247272,14 30,14.6657972 30,15.5 C30,16.3284271 29.3313451,17 28.4917359,17 L1.50826408,17 C0.675272828,17 0,16.3342028 0,15.5 Z" id="Combined-Shape"></path>
                </g>
            </g>
        </g>
    </g>
</svg>