<?xml version="1.0" encoding="UTF-8"?>
<svg width="30px" height="17px" viewBox="0 0 30 17" version="1.1" xmlns="http://www.w3.org/2000/svg" xmlns:xlink="http://www.w3.org/1999/xlink">
    <!-- Generator: Sketch 43.2 (39069) - http://www.bohemiancoding.com/sketch -->
    <title>Combined Shape</title>
    <desc>Created with Sketch.</desc>
    <defs></defs>
    <g id="Page-1" stroke="none" stroke-width="1" fill="none" fill-rule="evenodd">
        <g id="WhiteSmoke-Desktop-HD" transform="translate(-1100.000000, -38.000000)" fill="#ffffff">
            <g id="navigation-open">
                <g id="Group-11" transform="translate(1107.000000, 38.000000)">
                    <path d="M8.04500008,6.50000243 L1.85867741,0.313679768 C1.4442337,-0.100763945 0.746651175,-0.106627463 0.320011856,0.320011856 C-0.109601914,0.749625626 -0.109462435,1.43553521 0.313679768,1.85867741 L6.50000243,8.04500008 L0.313679768,14.2313227 C-0.100763945,14.6457665 -0.106627463,15.343349 0.320011856,15.7699883 C0.749625626,16.1996021 1.43553521,16.1994626 1.85867741,15.7763204 L8.04500008,9.58999772 L14.2313227,15.7763204 C14.6457665,16.1907641 15.343349,16.1966276 15.7699883,15.7699883 C16.1996021,15.3403745 16.1994626,14.6544649 15.7763204,14.2313227 L9.58999772,8.04500008 L15.7763204,1.85867741 C16.1907641,1.4442337 16.1966276,0.746651175 15.7699883,0.320011856 C15.3403745,-0.109601914 14.6544649,-0.109462435 14.2313227,0.313679768 L8.04500008,6.50000243 Z" id="Combined-Shape"></path>
                </g>
            </g>
        </g>
    </g>
</svg>