<?xml version="1.0" encoding="UTF-8"?>
<svg width="35px" height="26px" viewBox="0 0 35 26" version="1.1" xmlns="http://www.w3.org/2000/svg" xmlns:xlink="http://www.w3.org/1999/xlink">
    <!-- Generator: Sketch 43.2 (39069) - http://www.bohemiancoding.com/sketch -->
    <title>contactTick</title>
    <desc>Created with Sketch.</desc>
    <defs></defs>
    <g id="Page-1" stroke="none" stroke-width="1" fill="none" fill-rule="evenodd">
        <g id="GaycorTechnologyLtd-Desktop" transform="translate(-665.000000, -4475.000000)" fill="#24A844">
            <g id="contact" transform="translate(0.000000, 4147.000000)">
                <g id="Group-10" transform="translate(260.000000, 311.000000)">
                    <g id="Group-20" transform="translate(405.000000, 17.000000)">
                        <path d="M32.0833333,0 L10.2083333,0 C9.20208333,0 8.41458333,0.505555556 7.88958333,1.27111111 L0,13 L7.88958333,24.7144444 C8.41458333,25.48 9.20208333,26 10.2083333,26 L32.0833333,26 C33.6875,26 35,24.7 35,23.1111111 L35,2.88888889 C35,1.3 33.6875,0 32.0833333,0 L32.0833333,0 Z M18.2031715,19 L13,13.75 L15.0961348,11.635 L18.2031715,14.755 L25.9038652,7 L28,9.115 L18.2031715,19 L18.2031715,19 Z" id="Shape"></path>
                    </g>
                </g>
            </g>
        </g>
    </g>
</svg>